<svg xmlns="http://www.w3.org/2000/svg"  viewBox="0 0 30 30" width="480px" height="480px"><path d="M8.502 6.343L6.465 5.138c-.29-.172-.646-.184-.947-.032L3.556 6.097C3.215 6.269 3 6.622 3 7.009v15.564c0 .34.167.658.444.846l2.072 1.409c.299.203.682.228 1.004.064l1.928-.984C8.786 23.736 9 23.384 9 22.998V7.223C9 6.86 8.81 6.525 8.502 6.343zM23.535 5.138l-2.037 1.205C21.19 6.525 21 6.861 21 7.223v15.775c0 .385.214.737.552.91l1.928.984c.321.164.705.14 1.004-.064l2.072-1.409C26.833 23.23 27 22.912 27 22.573V7.009c0-.387-.215-.74-.556-.912l-1.963-.991C24.181 4.954 23.825 4.966 23.535 5.138zM19 7.821l-3.999 2.366L11 7.82v10.145l3.487 2.179c.322.201.728.201 1.049-.002L19 17.964V7.821z"/></svg>