<?xml version="1.0" encoding="utf-8"?>
<!-- Generator: Adobe Illustrator 25.3.1, SVG Export Plug-In . SVG Version: 6.00 Build 0)  -->
<svg version="1.1" id="Calque_1" xmlns="http://www.w3.org/2000/svg" xmlns:xlink="http://www.w3.org/1999/xlink" x="0px" y="0px"
	 viewBox="0 0 1920 1080" style="enable-background:new 0 0 1920 1080;" xml:space="preserve">
<path d="M1462.8,281.7h-110c-65.2,0-113.6,48.4-113.6,113.7v403.3h124.7V413.8c0-13.2,8.8-29.4,29.4-29.4h29.3
	c20.6,0,29.4,12.5,29.4,29.4v106.3h-66v102.6h66v176h124.7V395.4C1576.5,330.1,1528,281.7,1462.8,281.7L1462.8,281.7z"/>
<path d="M876.7,396.2v402.5h125.6V591.8h140.3V488.5h-140.3v-73.8c0-13.3,8.9-29.5,29.5-29.5h162.5V281.7H991.2
	C925.4,281.7,876.7,330.4,876.7,396.2L876.7,396.2z"/>
<rect x="706.3" y="281.7" width="125.5" height="516.9"/>
<path d="M343.9,396.2v402.5h125.6V591.8h140.3V488.5H469.4v-73.8c0-13.3,8.9-29.5,29.5-29.5h162.4V281.7h-203
	C392.6,281.7,343.9,330.4,343.9,396.2L343.9,396.2z"/>
</svg>
